<?xml version="1.0" encoding="utf-8"?>
<!-- Generator: Adobe Illustrator 25.0.0, SVG Export Plug-In . SVG Version: 6.00 Build 0)  -->
<svg version="1.1" id="Layer_1" xmlns="http://www.w3.org/2000/svg" xmlns:xlink="http://www.w3.org/1999/xlink" x="0px" y="0px"
	 viewBox="0 0 66 44" style="enable-background:new 0 0 66 44;" xml:space="preserve">
<style type="text/css">
	.st0{fill:#EF4E84;}
	.st1{fill:#7D7D7D;}
	.st2{fill:#EF4D84;}
	.st3{fill:#6D6D6D;}
</style>
<path class="st0" d="M6,28.6c5.8,5.8,14.9,6.2,21.1,1.2l1.3,1.3l-1.1,1.1l8.8,8.8c-0.3,0.5-0.5,0.9-0.3,1.1l0.5,0.5
	c0.8,0.8,6.9-5.4,6.2-6.2l-0.5-0.5c-0.2-0.2-0.6,0-1.1,0.3l-8.8-8.8l-1.1,1.1l-1.3-1.3c5-6.2,4.6-15.4-1.2-21.1
	C22.3-0.2,12.3-0.2,6,6C-0.2,12.3-0.2,22.3,6,28.6L6,28.6z M7.9,7.9c5.2-5.2,13.6-5.2,18.8,0c5.2,5.2,5.2,13.6,0,18.8
	c-5.2,5.2-13.6,5.2-18.8,0C2.7,21.5,2.7,13.1,7.9,7.9z"/>
<path class="st1" d="M40.1,24.5L39.5,28h-0.9l-0.5-2.8L37.5,28h-0.8l-0.6-3.5h0.7l0.4,2.9l0.6-2.9h0.7l0.6,2.9l0.5-2.9H40.1z
	 M42.6,24.5L42.5,25h-1.3v1h1.1v0.5h-1.1v1h1.4V28h-2v-3.5H42.6z M44.9,26.2c0.2,0,0.4,0.1,0.6,0.3c0.1,0.1,0.2,0.3,0.2,0.6
	c0,0.4-0.1,0.6-0.4,0.8c-0.3,0.1-0.6,0.2-1.1,0.2h-1v-3.5h0.9c1,0,1.4,0.3,1.4,0.9c0,0.2-0.1,0.4-0.2,0.5
	C45.3,26.1,45.1,26.1,44.9,26.2z M43.9,25V26h0.4c0.2,0,0.3,0,0.4-0.1c0.1-0.1,0.2-0.2,0.2-0.4c0-0.2-0.1-0.3-0.2-0.4
	c-0.1-0.1-0.3-0.1-0.5-0.1H43.9z M44.3,27.5c0.2,0,0.4,0,0.6-0.1C45,27.3,45,27.2,45,27c0-0.2-0.1-0.3-0.2-0.4
	c-0.1-0.1-0.3-0.1-0.5-0.1h-0.5v1.1H44.3z M47.2,24.5c0.5,0,1,0.1,1.3,0.4c0.3,0.2,0.5,0.7,0.5,1.3c0,0.6-0.2,1.1-0.5,1.4
	c-0.3,0.3-0.7,0.4-1.2,0.4h-0.9v-3.5H47.2z M47,25v2.5h0.3c0.3,0,0.5-0.1,0.7-0.3c0.2-0.2,0.2-0.5,0.2-1c0-0.3,0-0.6-0.1-0.8
	c-0.1-0.2-0.2-0.3-0.3-0.4c-0.1-0.1-0.3-0.1-0.5-0.1H47z M51.6,24.5L51.5,25h-1.3v1h1.1v0.5h-1.1v1h1.4V28h-2v-3.5H51.6z M53.1,24.5
	c0.2,0,0.5,0,0.6,0.1c0.2,0.1,0.3,0.2,0.5,0.3L54,25.3c-0.1-0.1-0.2-0.2-0.4-0.2c-0.1,0-0.3-0.1-0.4-0.1c-0.2,0-0.3,0-0.4,0.1
	c-0.1,0.1-0.1,0.2-0.1,0.3c0,0.1,0,0.2,0.1,0.2c0,0.1,0.1,0.1,0.2,0.2c0.1,0,0.2,0.1,0.4,0.2c0.3,0.1,0.6,0.2,0.8,0.4
	c0.2,0.2,0.3,0.4,0.3,0.7c0,0.2-0.1,0.4-0.2,0.6c-0.1,0.2-0.3,0.3-0.5,0.4c-0.2,0.1-0.4,0.1-0.7,0.1c-0.3,0-0.5,0-0.7-0.1
	c-0.2-0.1-0.4-0.2-0.5-0.4l0.3-0.4c0.1,0.1,0.3,0.2,0.4,0.3c0.1,0.1,0.3,0.1,0.5,0.1c0.2,0,0.3,0,0.5-0.1c0.1-0.1,0.2-0.2,0.2-0.4
	c0-0.1,0-0.2-0.1-0.2c0-0.1-0.1-0.1-0.2-0.2c-0.1-0.1-0.2-0.1-0.4-0.2c-0.4-0.1-0.6-0.2-0.8-0.4c-0.2-0.2-0.2-0.4-0.2-0.6
	c0-0.2,0-0.4,0.2-0.5c0.1-0.1,0.2-0.3,0.4-0.3C52.7,24.5,52.9,24.5,53.1,24.5z M55.6,24.5V28h-0.7v-3.5H55.6z M57.8,24.5
	c0.2,0,0.4,0,0.6,0.1c0.2,0.1,0.3,0.2,0.5,0.3l-0.4,0.4c-0.1-0.1-0.2-0.2-0.4-0.2C58.1,25,58,25,57.8,25c-0.3,0-0.5,0.1-0.7,0.3
	c-0.2,0.2-0.3,0.5-0.3,1c0,0.5,0.1,0.8,0.2,1c0.1,0.2,0.3,0.3,0.6,0.3c0.2,0,0.4,0,0.6-0.1v-0.9h-0.5L57.7,26h1.2v1.7
	c-0.4,0.2-0.8,0.3-1.2,0.3c-0.5,0-0.9-0.2-1.1-0.5c-0.3-0.3-0.4-0.8-0.4-1.3c0-0.4,0.1-0.7,0.2-1c0.1-0.3,0.3-0.5,0.6-0.6
	C57.3,24.5,57.5,24.5,57.8,24.5z M62.2,28h-0.9l-1.2-2.8c0,0.2,0.1,0.5,0.1,0.7c0,0.2,0,0.4,0,0.7V28h-0.6v-3.5h0.8l1.2,2.8
	c0-0.1,0-0.3-0.1-0.5c0-0.2,0-0.4,0-0.7v-1.6h0.6V28z"/>
<path class="st2" d="M9,12.1c0.7,0,1.3,0.1,1.8,0.3c0.5,0.2,1,0.5,1.4,0.9l-1,1.1c-0.3-0.3-0.7-0.5-1-0.6c-0.3-0.1-0.7-0.2-1.1-0.2
	c-0.4,0-0.8,0.1-1,0.3c-0.3,0.2-0.4,0.4-0.4,0.8c0,0.2,0.1,0.4,0.2,0.6c0.1,0.1,0.3,0.3,0.6,0.4s0.7,0.3,1.2,0.4
	c1,0.3,1.7,0.7,2.2,1.1c0.5,0.4,0.7,1.1,0.7,1.9c0,0.6-0.1,1.1-0.4,1.6c-0.3,0.4-0.7,0.8-1.3,1.1c-0.6,0.3-1.2,0.4-2,0.4
	c-0.8,0-1.4-0.1-2-0.4c-0.6-0.2-1.1-0.6-1.5-1l1-1.2C6.6,20,7,20.3,7.4,20.4c0.4,0.2,0.8,0.2,1.3,0.2c0.5,0,0.9-0.1,1.2-0.4
	c0.3-0.2,0.5-0.6,0.5-1c0-0.3-0.1-0.5-0.2-0.6c-0.1-0.2-0.3-0.3-0.5-0.5c-0.3-0.1-0.6-0.3-1.1-0.4c-1.1-0.3-1.8-0.7-2.3-1.2
	c-0.4-0.5-0.7-1.1-0.7-1.8c0-0.5,0.1-1,0.4-1.4c0.3-0.4,0.7-0.7,1.2-1S8.3,12.1,9,12.1z M19.7,12.3l-0.2,1.5H16v2.5H19v1.5H16v2.7
	h3.8V22h-5.8v-9.7H19.7z M25,12.1c0.9,0,1.7,0.2,2.3,0.6c0.6,0.4,1.1,1,1.5,1.7c0.3,0.8,0.5,1.7,0.5,2.7c0,1.1-0.2,2-0.5,2.7
	c-0.3,0.8-0.8,1.3-1.5,1.7c-0.6,0.4-1.4,0.6-2.3,0.6c-0.9,0-1.7-0.2-2.3-0.6c-0.6-0.4-1.1-1-1.5-1.7c-0.3-0.8-0.5-1.7-0.5-2.7
	c0-1,0.2-1.9,0.5-2.7c0.4-0.8,0.9-1.3,1.5-1.8C23.3,12.3,24.1,12.1,25,12.1z M25,13.6c-0.7,0-1.2,0.3-1.6,0.8
	c-0.4,0.6-0.5,1.5-0.5,2.7s0.2,2.1,0.5,2.7c0.4,0.6,0.9,0.8,1.6,0.8c0.7,0,1.2-0.3,1.6-0.8c0.4-0.6,0.5-1.5,0.5-2.7
	s-0.2-2.1-0.5-2.7C26.2,13.9,25.7,13.6,25,13.6z"/>
<path class="st3" d="M37.1,18.2h-1V22H34v-9.7h3c1.3,0,2.3,0.2,2.9,0.7c0.7,0.5,1,1.2,1,2.2c0,0.6-0.2,1.2-0.5,1.6
	c-0.3,0.4-0.8,0.8-1.4,1l2.5,4.2h-2.3L37.1,18.2z M36.1,16.8h1.1c0.6,0,1-0.1,1.2-0.4c0.3-0.3,0.4-0.6,0.4-1.2
	c0-0.5-0.1-0.9-0.4-1.1c-0.3-0.2-0.7-0.4-1.4-0.4h-0.9V16.8z M47.7,22l-0.5-2.2h-3L43.6,22h-2.1l3-9.7H47l3,9.7H47.7z M44.6,18.3
	h2.3l-1.1-4.5L44.6,18.3z M57.3,12.3l-3.1,6V22h-2.1v-3.6l-3.1-6h2.3l1.9,4.4l1.9-4.4H57.3z M62.6,22l-0.5-2.2h-3L58.5,22h-2.1
	l3-9.7h2.5l3,9.7H62.6z M59.4,18.3h2.3l-1.1-4.5L59.4,18.3z"/>
</svg>
